<svg width="54" height="56" xmlns="http://www.w3.org/2000/svg" xmlns:xlink="http://www.w3.org/1999/xlink"><defs><filter x="-425.9%" y="-410.7%" width="951.9%" height="921.4%" filterUnits="objectBoundingBox" id="a"><feOffset dy="32" in="SourceAlpha" result="shadowOffsetOuter1"/><feGaussianBlur stdDeviation="44" in="shadowOffsetOuter1" result="shadowBlurOuter1"/><feColorMatrix values="0 0 0 0 0.168627451 0 0 0 0 0.168627451 0 0 0 0 0.321568627 0 0 0 0.24 0" in="shadowBlurOuter1" result="shadowMatrixOuter1"/><feMerge><feMergeNode in="shadowMatrixOuter1"/><feMergeNode in="SourceGraphic"/></feMerge></filter><linearGradient x1="27.515%" y1="0%" x2="59.658%" y2="100%" id="c"><stop stop-color="#FFF" offset="0%"/><stop stop-color="#F0F4FD" offset="100%"/></linearGradient><path id="b" d="M32.162 56L0 37.465 13.699 0l32.36 5.521L54 33.915z"/><linearGradient x1="68.479%" y1="83.682%" x2="3.177%" y2="14.149%" id="d"><stop stop-color="#F0F4FD" offset="0%"/><stop stop-color="#95A1BC" stop-opacity=".48" offset="100%"/></linearGradient><linearGradient x1="47.38%" y1="24.752%" x2="58.769%" y2="81.336%" id="f"><stop stop-color="#95A1BC" stop-opacity=".32" offset="0%"/><stop stop-color="#D9E0F0" stop-opacity=".24" offset="100%"/></linearGradient></defs><g filter="url(#a)" fill="none" fill-rule="evenodd"><mask id="e" fill="#fff"><use xlink:href="#b"/></mask><use fill="url(#c)" xlink:href="#b"/><path d="M13-.823l30.6 26.485L62.8 40 73 21.082 71.8 8.537 57-.823 45.6-5.004 25.6-6 13-.823z" fill="url(#d)" mask="url(#e)"/><path d="M55.2 22L-3 38.226l8.6 14.661c8 4.822 12.267 7.429 12.8 7.82.533.39 10 .39 28.4 0L57 48.195 55.2 22z" fill="url(#f)" mask="url(#e)"/><path fill-opacity=".12" fill="#58678C" mask="url(#e)" d="M46.2 4l-2.8 21.228L30 61l26-6.486 7.6-14.348 1.4-23.98z"/></g></svg>