<svg width="72" height="72" xmlns="http://www.w3.org/2000/svg"><defs><filter x="-48.6%" y="-48.6%" width="197.2%" height="197.2%" filterUnits="objectBoundingBox" id="a"><feOffset dy="6" in="SourceAlpha" result="shadowOffsetOuter1"/><feGaussianBlur stdDeviation="6" in="shadowOffsetOuter1" result="shadowBlurOuter1"/><feColorMatrix values="0 0 0 0 0.392156863 0 0 0 0 0.282352941 0 0 0 0 0.984313725 0 0 0 0.48 0" in="shadowBlurOuter1" result="shadowMatrixOuter1"/><feMerge><feMergeNode in="shadowMatrixOuter1"/><feMergeNode in="SourceGraphic"/></feMerge></filter><linearGradient x1="50%" y1="100%" x2="50%" y2="0%" id="b"><stop stop-color="#E2DDFE" offset="0%"/><stop stop-color="#FFF" offset="100%"/></linearGradient></defs><g filter="url(#a)" fill-rule="nonzero" fill="none"><path d="M45 27H27v-1a1 1 0 0 1 1-1h16a1 1 0 0 1 1 1v1z" fill="#B8ABFD"/><path d="M47 29H25a1 1 0 0 0-1 1v16a1 1 0 0 0 1 1h22a1 1 0 0 0 1-1V30a1 1 0 0 0-1-1zM34 42v-8l6 4-6 4z" fill="url(#b)"/></g></svg>