<svg width="72" height="72" xmlns="http://www.w3.org/2000/svg"><defs><filter x="-48.6%" y="-48.6%" width="197.2%" height="197.2%" filterUnits="objectBoundingBox" id="a"><feOffset dy="6" in="SourceAlpha" result="shadowOffsetOuter1"/><feGaussianBlur stdDeviation="6" in="shadowOffsetOuter1" result="shadowBlurOuter1"/><feColorMatrix values="0 0 0 0 0.392156863 0 0 0 0 0.282352941 0 0 0 0 0.984313725 0 0 0 0.48 0" in="shadowBlurOuter1" result="shadowMatrixOuter1"/><feMerge><feMergeNode in="shadowMatrixOuter1"/><feMergeNode in="SourceGraphic"/></feMerge></filter><linearGradient x1="50%" y1="100%" x2="50%" y2="0%" id="b"><stop stop-color="#E2DDFE" offset="0%"/><stop stop-color="#FFF" offset="100%"/></linearGradient></defs><g filter="url(#a)" fill-rule="nonzero" fill="none"><path d="M45.95 37.949a7 7 0 0 0-9.9-9.9L36 28.1l-.05-.05a7 7 0 0 0-6.52-1.862l14.14 14.14 2.38-2.379z" fill="#B8ABFD"/><path d="M25.708 25.293a1 1 0 0 0-1.414 1.414l1.56 1.56a6.987 6.987 0 0 0 .2 9.683L36 47.9l4.743-4.743 3.55 3.55a1 1 0 0 0 1.414-1.414l-19.999-20z" fill="url(#b)"/></g></svg>