<svg width="72" height="72" xmlns="http://www.w3.org/2000/svg"><defs><filter x="-48.6%" y="-48.6%" width="197.2%" height="197.2%" filterUnits="objectBoundingBox" id="a"><feOffset dy="6" in="SourceAlpha" result="shadowOffsetOuter1"/><feGaussianBlur stdDeviation="6" in="shadowOffsetOuter1" result="shadowBlurOuter1"/><feColorMatrix values="0 0 0 0 0.392156863 0 0 0 0 0.282352941 0 0 0 0 0.984313725 0 0 0 0.48 0" in="shadowBlurOuter1" result="shadowMatrixOuter1"/><feMerge><feMergeNode in="shadowMatrixOuter1"/><feMergeNode in="SourceGraphic"/></feMerge></filter><linearGradient x1="50%" y1="100%" x2="50%" y2="0%" id="b"><stop stop-color="#E2DDFE" offset="0%"/><stop stop-color="#FFF" offset="100%"/></linearGradient></defs><g filter="url(#a)" fill-rule="nonzero" fill="none"><path d="M45.2 40.8c-.7.1-1.5.2-2.2.2-2.7 0-5.2-1-7.1-2.9-3.3-3.3-3.9-8.3-1.5-12.3.2-.3.2-.8 0-1.1-.2-.3-.6-.5-1-.4-2.2.5-4.3 1.6-5.9 3.2-2.3 2.3-3.5 5.3-3.5 8.5s1.2 6.2 3.5 8.5S32.8 48 36 48s6.2-1.2 8.5-3.5c.6-.6 1.2-1.4 1.7-2.2.2-.3.2-.8 0-1.1-.2-.4-.6-.5-1-.4z" fill="url(#b)"/><path d="M46.6 33.2c-.4-.5-.7-1.3-.7-2.2 0-.9.3-1.8.8-2.3.2-.2.3-.4.3-.7 0-.3-.1-.5-.3-.7-.4-.4-1-.4-1.4 0-.5.5-1.4.8-2.3.8-.9 0-1.8-.3-2.3-.8-.4-.4-1-.4-1.4 0-.2.2-.3.4-.3.7 0 .3.1.5.3.7.5.5.8 1.4.8 2.3 0 .9-.3 1.8-.8 2.3-.2.2-.3.4-.3.7 0 .3.1.5.3.7.4.4 1 .4 1.4 0 .5-.5 1.4-.8 2.3-.8.9 0 1.8.3 2.3.8.2.2.5.3.7.3.6 0 1-.4 1-1 0-.3-.1-.6-.4-.8z" fill="#B8ABFD"/></g></svg>