<svg width="72" height="72" xmlns="http://www.w3.org/2000/svg"><defs><filter x="-48.6%" y="-48.6%" width="197.2%" height="197.2%" filterUnits="objectBoundingBox" id="a"><feOffset dy="6" in="SourceAlpha" result="shadowOffsetOuter1"/><feGaussianBlur stdDeviation="6" in="shadowOffsetOuter1" result="shadowBlurOuter1"/><feColorMatrix values="0 0 0 0 0.392156863 0 0 0 0 0.282352941 0 0 0 0 0.984313725 0 0 0 0.48 0" in="shadowBlurOuter1" result="shadowMatrixOuter1"/><feMerge><feMergeNode in="shadowMatrixOuter1"/><feMergeNode in="SourceGraphic"/></feMerge></filter><linearGradient x1="50%" y1="100%" x2="50%" y2="0%" id="b"><stop stop-color="#E2DDFE" offset="0%"/><stop stop-color="#FFF" offset="100%"/></linearGradient></defs><g filter="url(#a)" fill-rule="nonzero" fill="none"><path d="M44 26a1 1 0 0 0-1-1H29a1 1 0 0 0-1 1v1h16v-1z" fill="#B8ABFD"/><path d="M47 29H25a1 1 0 0 0-.983 1.185l3 16A1 1 0 0 0 28 47h16a1 1 0 0 0 .983-.815l3-16A1 1 0 0 0 47 29z" fill="url(#b)"/></g></svg>