<?xml version="1.0" encoding="UTF-8"?>
<svg width="1056px" height="688px" viewBox="0 0 1056 688" version="1.1" xmlns="http://www.w3.org/2000/svg" xmlns:xlink="http://www.w3.org/1999/xlink">
    <!-- Generator: Sketch 52.6 (67491) - http://www.bohemiancoding.com/sketch -->
    <title>Back</title>
    <desc>Created with Sketch.</desc>
    <defs>
        <path d="M722.806035,269.209164 C701.554358,327.845843 634.783078,380.521748 548.937289,205.360957 C523.935791,154.347595 485.204613,365.865693 393.472229,294.381314 C405.25993,287.951665 356.371198,279.669832 246.806035,269.535816 C335.640042,304.154243 368.292979,344.342075 344.764847,390.099313 C413.692669,414.505737 484.388646,447.209135 548.072453,447.330258 L549.145436,447.330258 C619.705401,447.05773 681.560603,406.40559 722.636205,269.535816 L722.806035,269.209164 Z" id="path-1"></path>
    </defs>
    <g id="1---Front-Page" stroke="none" stroke-width="1" fill="none" fill-rule="evenodd">
        <g id="Desktop-Copy" transform="translate(-988.000000, -1003.000000)">
            <g id="Zig-Zag" transform="translate(479.000000, 841.000000)">
                <g id="Features" transform="translate(202.000000, 162.000000)">
                    <g id="1" transform="translate(19.000000, 0.000000)">
                        <g id="Illustration-Copy" transform="translate(288.000000, 0.000000)">
                            <g id="Back">
                                <mask id="mask-2" fill="white">
                                    <use xlink:href="#path-1"></use>
                                </mask>
                                <use id="Mask" fill-opacity="0.24" fill="#E2DDFE" transform="translate(484.806035, 322.330258) scale(1, -1) rotate(209.000000) translate(-484.806035, -322.330258) " xlink:href="#path-1"></use>
                                <rect id="Rectangle" stroke="#B8ABFD" stroke-width="2" fill="#FFFFFF" x="343" y="233" width="448" height="308"></rect>
                                <rect id="Rectangle" stroke="#E2DDFE" stroke-width="2" fill="#FFFFFF" transform="translate(567.000000, 344.000000) rotate(14.000000) translate(-567.000000, -344.000000) " x="363" y="165" width="408" height="358"></rect>
                                <path d="M440.829487,501.345239 C439.102276,501.323239 437.376705,501.124239 435.656608,500.756239 C438.655149,500.804239 441.650406,500.500239 444.656608,501.037239 C443.380901,501.148239 442.104647,501.362239 440.829487,501.345239 M440.278082,504.470498 C440.949788,504.467699 441.598827,504.355738 442.184289,504.698896 C443.151767,505.265414 444.330431,505.415441 445.513518,505.521803 C449.990451,505.92374 454.469044,506.313921 458.947636,506.700743 C459.253359,506.727053 459.598333,506.730972 459.604968,506.998556 C459.622659,507.725178 460.380055,507.706144 461.020249,507.728536 C462.050198,507.764364 460.228576,508.365029 461.371858,508.494343 C462.242588,508.592868 463.0807,508.736737 463.984048,508.722742 C465.859849,508.694752 467.713536,508.819028 469.179679,509.820511 C469.731418,510.197256 470.388197,510.188859 471.056586,510.178783 C476.405355,510.098731 481.714319,510.610389 487.052032,510.743062 C492.459955,510.878534 497.855716,511.274872 503.255347,511.567648 C508.786002,511.867141 514.316104,511.836912 519.811377,512.79585 C527.32619,514.106343 535.082597,514.352095 542.804727,514.558662 C543.21549,514.569858 543.70531,514.739477 544.058025,514.106343 C541.920176,513.428984 539.540734,513.710564 537.05791,513.242571 C537.669355,513.170916 537.954623,513.142367 538.237127,513.10374 C542.79367,512.482362 547.24462,513.44074 551.747537,513.6098 C554.264637,513.704406 556.775104,513.831481 559.296627,513.803491 C563.00953,513.761506 566.726855,513.63779 570.408246,514.14329 C570.855497,514.204308 571.355821,514.202629 571.712958,514.639273 C570.07875,514.821768 568.633062,514.982991 567.187374,515.144213 C568.656282,515.341263 570.088149,515.370373 571.547658,515.12574 C572.689281,514.934848 573.853019,514.687976 575.065407,514.899021 C578.963512,515.578618 582.925195,516.036535 586.810032,516.778271 C591.308527,517.636445 595.656095,517.692985 598.892998,514.643192 C598.978136,514.56314 599.130169,514.513878 599.262851,514.467414 C600.994913,513.86115 601.739041,512.702923 602.51247,511.528462 C604.005703,509.259031 604.601669,506.723135 606.599649,504.596453 C607.595874,503.535631 608.345531,502.390279 609.77961,501.533784 C611.089851,500.751183 611.001948,499.38527 609.880227,498.153709 C609.354472,497.576555 607.615777,497.227239 606.461991,497.573196 C605.371229,497.89956 604.13341,498.197374 603.349477,498.781245 C601.972342,499.8068 600.369646,499.838708 598.64256,499.827512 C595.746761,499.809599 592.885792,499.400945 589.976172,499.489953 C583.733453,499.681405 577.513401,499.203335 571.280634,499.078499 C568.983566,499.032596 566.680969,498.892086 564.40325,498.672644 C560.579226,498.304855 556.739722,497.999204 552.911827,497.695232 C549.907118,497.456757 546.857076,497.264186 543.878903,496.963013 C538.72363,496.441839 533.541267,496.156341 528.374936,495.864125 C522.343404,495.523207 516.33288,494.779792 510.209576,495.241627 C507.158428,495.472265 504.085166,494.789868 500.951092,494.819537 C497.725798,494.850326 494.501609,494.294445 491.242592,494.165131 C486.357106,493.97144 481.48323,493.430672 476.606037,494.188083 C476.047112,494.274852 475.598202,494.089558 475.110593,493.967521 C473.377979,493.533116 471.55304,493.559986 469.886767,493.928895 C468.059616,494.333071 466.237441,494.353224 464.413608,494.330832 C460.265064,494.281569 456.117625,493.99943 451.972398,494.02686 C445.131502,494.071084 438.370216,493.454744 431.586263,493.002985 C430.858167,492.954842 430.136705,492.914536 429.471633,492.586493 C427.663279,491.695291 425.66143,491.241853 423.442865,491.289436 C417.274781,491.421549 411.157005,491.933766 405.039229,492.477892 C399.071827,493.008583 393.091157,493.460902 387.115462,493.94289 C385.635498,494.062127 384.140054,494.120906 382.741911,494.607933 C383.868607,494.998114 385.04893,494.948851 386.208245,494.965645 C387.398519,494.982999 388.584923,494.972923 389.748107,495.203001 C392.606312,495.768399 395.695607,495.326157 398.478072,496.239751 C398.603015,496.280617 398.772738,496.259344 398.920348,496.254306 C404.049638,496.081328 409.151286,496.729017 414.281681,496.52357 C415.644443,496.469269 416.88779,496.785557 418.17647,497.081691 C421.567617,497.860933 424.998569,498.579717 428.619147,498.505824 C429.890689,498.480633 431.143434,498.531015 432.366879,498.804197 C433.225999,498.995649 434.109444,499.046591 435.006158,499.070102 C440.210635,499.206134 445.383599,498.845622 450.526158,498.380988 C455.706309,497.913555 460.908022,497.958339 466.074905,498.027754 C472.667021,498.115643 479.260243,498.34796 485.858993,498.372591 C488.90019,498.384347 491.978428,498.228163 494.97208,498.51646 C497.535619,498.763332 500.086443,499.025878 502.662698,499.031476 C506.159438,499.039313 509.631854,499.30074 513.111456,499.461963 C515.820946,499.587918 518.558632,499.742983 521.295211,500.333012 C518.555315,501.735312 515.538443,500.981821 512.477344,501.073069 C513.140204,501.888138 513.899812,502.184832 514.801501,502.284477 C516.708814,502.495522 518.6399,502.896898 520.530627,502.821885 C525.244178,502.634352 529.8256,503.549626 534.507639,503.504282 C535.265588,503.497005 536.048969,503.584893 537.167926,504.084235 C535.931766,504.085915 535.19593,504.081996 534.460647,504.088154 C529.846608,504.12734 525.305544,503.48245 520.706985,503.322347 C517.967088,503.226621 515.220005,503.175679 512.479555,503.029011 C507.380119,502.755829 502.271284,502.575573 497.167978,502.333739 C493.23836,502.147885 489.28497,502.33038 485.374702,502.113738 C479.14691,501.768341 472.908614,501.904932 466.678611,501.640146 C460.608933,501.382078 454.508295,501.504675 448.421479,501.445896 C447.919496,501.441417 447.420278,501.329457 446.919954,501.267319 C456.027512,500.973424 465.093606,501.06971 474.376416,500.801565 C473.994401,500.347567 473.626206,500.275913 473.27515,500.298305 C470.294213,500.485838 467.364691,499.969702 464.391494,499.987056 C458.897327,500.019524 453.402054,499.97418 447.907334,499.980338 C443.895342,499.984816 439.882798,500.014486 435.870806,500.048074 C434.96967,500.055351 434.230517,500.267516 434.284143,501.06803 C434.331135,501.766661 435.009475,501.936841 435.817733,501.972668 C440.259838,502.168038 444.678723,502.628194 449.141282,502.585649 C450.923653,502.568855 452.706576,502.503919 454.487287,502.52855 C462.95244,502.645548 471.418146,502.629314 479.882746,502.854913 C484.557598,502.979189 489.238531,503.039648 493.90509,503.274204 C495.602322,503.359294 497.36866,503.34138 499.06147,503.767948 C498.822088,504.116144 498.513048,504.114464 498.232756,504.113345 C493.261579,504.093192 488.286533,504.15421 483.320885,504.020978 C477.017354,503.850798 470.720456,503.528913 464.409738,503.529473 C462.63179,503.529473 460.854949,503.70749 459.077001,503.724843 C453.962085,503.775785 448.846064,503.780264 443.730595,503.813852 C441.504843,503.828406 439.274669,503.973395 437.080983,503.539549 C436.520399,503.428709 435.911717,503.346418 435.203523,503.837923 C436.874219,504.647954 438.60628,504.477215 440.278082,504.470498" id="Fill-1" fill="#B8ABFD" transform="translate(496.741911, 504.286040) rotate(146.000000) translate(-496.741911, -504.286040) "></path>
                            </g>
                        </g>
                    </g>
                </g>
            </g>
        </g>
    </g>
</svg>