<svg width="2560" height="778" fill="none" xmlns="http://www.w3.org/2000/svg"><path opacity=".64" fill-rule="evenodd" clip-rule="evenodd" d="M2506.84 31.178C2455.09 108.009 2287 152 2278.75-123.398c-2.41-80.74-189.44 223.23-256.42 72.295-38.69 28.975-139.85-38.796-139.85-38.796 136.32 112.228 82.11 137.214 82.11 137.214 90.75 59.975 134.1 154.496 226 177.594l1.54.386c101.97 25.007 205.88-11.298 314.35-193.707l.36-.41z" fill="url(#paint0_linear)"/><path fill-rule="evenodd" clip-rule="evenodd" d="M2244 100c42.53 0 77-34.474 77-77s-34.47-77-77-77-77 34.474-77 77 34.47 77 77 77z" fill="#FFDDF7"/><path fill-rule="evenodd" clip-rule="evenodd" d="M2264 278c6.63 0 12-5.373 12-12s-5.37-12-12-12-12 5.373-12 12 5.37 12 12 12z" fill="#E2DDFE"/><path fill-rule="evenodd" clip-rule="evenodd" d="M2329.88 333.429a27.26 27.26 0 0 0-3.64-10.793 28.129 28.129 0 0 0-7.8-8.447c-.14-.102-.28-.211-.43-.308l-.44-.29c-.3-.192-.59-.394-.89-.567-.31-.179-.61-.361-.92-.536l-.94-.494a28.99 28.99 0 0 0-3.94-1.622 30.687 30.687 0 0 0-4.14-1.006c-1.41-.218-2.84-.34-4.27-.366-1.42-.003-2.85.081-4.27.272-1.42.208-2.82.511-4.2.912-1.37.417-2.71.933-4.01 1.539-1.3.607-2.54 1.331-3.73 2.123-.32.227-.65.439-.97.678l-.93.717-.91.761c-.3.258-.58.532-.87.798a29.017 29.017 0 0 0-3.13 3.532c-.22.321-.46.634-.68.961l-.65.989-.6 1.018c-.19.339-.36.695-.55 1.042a27.652 27.652 0 0 0-1.76 4.371c-2.15 6.919-1.39 14.618 1.95 21.025.52 1.024 1.13 1.996 1.76 2.948l.51.697.25.348.27.336.54.671c.18.22.37.432.56.648.37.438.78.841 1.18 1.255.2.21.41.397.62.596.21.195.41.399.63.585.44.37.87.759 1.33 1.103l.68.53.7.5c.43.32.89.592 1.34.884.22.149.46.273.69.408l.7.397.72.363c.24.119.48.247.73.351.49.213.97.448 1.48.631 1.99.787 4.08 1.347 6.2 1.68.35.051.69.089 1.04.134.17.02.34.046.52.062l.52.039c.34.022.69.06 1.04.068l1.04.024c.17.007.35.004.52-.003l.52-.014c.35-.01.69-.015 1.04-.049l1.04-.083 1.03-.135c1.37-.204 2.74-.481 4.06-.893 1.33-.404 2.63-.884 3.87-1.487a27.217 27.217 0 0 0 8.39-6.164 26.61 26.61 0 0 0 5.34-8.667c.54-1.438.98-2.928 1.3-4.437.3-1.508.5-3.038.5-4.546.01-.146.01-.283 0-.408l-.03-.346a2.685 2.685 0 0 0-.08-.506c-.06-.259-.15-.364-.28-.34-.13.024-.31.379-.47.855-.15.478-.34 1.072-.41 1.607a30.094 30.094 0 0 1-.98 4.285c-.11.35-.21.706-.33 1.055-.13.348-.25.699-.37 1.052-.14.346-.27.695-.41 1.047-.14.35-.29.695-.44 1.049-1.45 3.399-3.73 6.498-6.59 8.98a27.046 27.046 0 0 1-7.91 4.775c-1.62.62-3.28 1.104-5 1.407-1.71.302-3.47.422-5.24.318l-1.59-.085a24.21 24.21 0 0 1-4.91-.91c-.27-.068-.53-.159-.79-.246l-.79-.262-.77-.299-.38-.15a9.809 9.809 0 0 1-.38-.167l-.76-.337c-.25-.116-.49-.247-.74-.37-.49-.239-.97-.523-1.44-.794-.25-.131-.47-.29-.71-.434-.23-.151-.46-.29-.69-.45-.45-.321-.91-.623-1.33-.971-.22-.171-.44-.337-.65-.51l-.62-.538-.32-.269-.3-.283-.59-.567-.6-.615-.3-.308-.28-.321-.57-.642-.53-.666-.27-.334-.26-.345-.5-.691-.47-.714-.24-.358-.22-.367-.43-.737-.4-.756-.2-.379c-.07-.128-.13-.258-.19-.387l-.36-.776c-.11-.263-.21-.529-.32-.793l-.16-.397c-.05-.132-.09-.269-.14-.403l-.28-.809c-.08-.271-.16-.547-.23-.821-.05-.161-.1-.322-.14-.483-.05-.161-.08-.324-.12-.486-.08-.324-.17-.645-.24-.969-.06-.325-.13-.649-.19-.973-.04-.161-.06-.324-.09-.488l-.07-.489-.08-.49c-.02-.164-.03-.329-.05-.493-.03-.329-.07-.658-.1-.989-.02-.662-.07-1.328-.03-1.999.04-1.576.15-3.194.32-4.712.05-.425.16-.925.27-1.388.34-1.305.78-2.583 1.29-3.83a32.2 32.2 0 0 1 1.84-3.608c.14-.217.27-.435.4-.653.06-.108.12-.22.19-.326l.21-.318c.14-.211.28-.423.43-.633.15-.21.32-.407.48-.608.74-.882 1.53-1.704 2.34-2.509.42-.39.83-.795 1.26-1.166.22-.188.43-.386.65-.568l.66-.55c1.22-.99 2.62-1.773 4-2.505a25.472 25.472 0 0 1 5.62-2.163c1.95-.505 3.95-.769 5.96-.839 4.63-.17 9.3.844 13.42 2.871 1.8.876 3.48 1.986 5.02 3.247 1.55 1.268 2.96 2.689 4.27 4.205.38.422.72.892 1.07 1.364.17.234.33.488.49.734.16.25.33.496.47.758.15.259.3.518.44.778.15.261.27.533.41.798.28.529.51 1.082.75 1.618a26.403 26.403 0 0 1 1.44 4.405c.35 1.504.58 3.036.65 4.577.03.268.04.535.06.814.02.28.05.572.1.893.05-1.248.05-2.352-.09-3.485" fill="#A0CBFD" fill-opacity=".64"/><path fill-rule="evenodd" clip-rule="evenodd" d="M1389.93 420.805c85.24 36.254 210.2 16.937 107.09-253.861C1467 88.077 1736 260.129 1751.46 87.915c-28.42 9.474 121.85-184.762 121.85-184.762-78.83 197.589 31.52 228.69 31.52 228.69-43.44 99.723-79.67 209.772-144.16 279.195l-1.09 1.168c-71.9 76.507-178.81 102.651-369.13 8.745l-.52-.146z" fill="#E2DDFE" fill-opacity=".24"/><mask id="a" maskUnits="userSpaceOnUse" x="1311" y="-170" width="756" height="772"><path fill-rule="evenodd" clip-rule="evenodd" d="M1389.93 420.805c85.24 36.254 210.2 16.937 107.09-253.861C1467 88.077 1736 260.129 1751.46 87.915c-28.42 9.474 121.85-184.762 121.85-184.762-78.83 197.589 31.52 228.69 31.52 228.69-43.44 99.723-79.67 209.772-144.16 279.195l-1.09 1.168c-71.9 76.507-178.81 102.651-369.13 8.745l-.52-.146z" fill="#fff"/></mask><path fill-rule="evenodd" clip-rule="evenodd" d="M1705.18 490.344c-37.73-84.597-20.6-209.876 251.96-111.513 79.37 28.647-97.35-237.312 74.57-255.773-8.97 28.577 182.61-125.056 182.61-125.056-196.18 82.263-229.21-27.526-229.21-27.526-98.95 45.174-208.35 83.315-276.63 149.009l-1.15 1.109c-75.24 73.222-99.52 180.577-2.3 369.226l.15.524z" fill="url(#paint1_linear)"/><mask id="b" maskUnits="userSpaceOnUse" x="1521" y="-192" width="768" height="760"><path fill-rule="evenodd" clip-rule="evenodd" d="M1705.18 490.344c-37.73-84.597-20.6-209.876 251.96-111.513 79.37 28.647-97.35-237.312 74.57-255.773-8.97 28.577 182.61-125.056 182.61-125.056-196.18 82.263-229.21-27.526-229.21-27.526-98.95 45.174-208.35 83.315-276.63 149.009l-1.15 1.109c-75.24 73.222-99.52 180.577-2.3 369.226l.15.524z" fill="#fff"/></mask><path fill-rule="evenodd" clip-rule="evenodd" d="M1828.56 598.766c-30.22-87.564-2.23-210.873 260.71-89.13 76.58 35.456-64.27-285.636 96.59-248.3C2186 213 2301 173 2301 173c-171.67 41.329-159-17-159-17-102.51 36.379-204.08 14.112-277.84 73.605l-1.24 1.005c-81.33 66.385-114.87 171.216-34.47 367.62l.11.536z" fill="#E2DDFE"/><path fill-rule="evenodd" clip-rule="evenodd" d="M1946.72 444.962c-287.94-87.812-205.77-282.483-62.97-487.396 15.68 25.523 25.42-219.86 25.42-219.86-66.62 202.031-171.15 154.925-171.15 154.925-30.82 104.315-73.81 211.903-69.03 306.539l.09 1.595c5.89 104.823 70.99 193.573 277.14 243.971l.5.226z" fill="url(#paint2_linear)"/><path fill-rule="evenodd" clip-rule="evenodd" d="M1840.42 448.944C1680.72 193.764 1922.8 53.968 2165-7c-4.91 29.548 111.08-102.465 111.08-102.465-182.83 108.766-230.81 4.641-230.81 4.641-91.7 58.506-194.72 111.5-253.2 186.06l-.99 1.257c-64.31 82.981-73.41 192.67 49.11 365.953l.23.498z" fill="#8E79FC"/><mask id="c" maskUnits="userSpaceOnUse" x="1632" y="-272" width="645" height="721"><path fill-rule="evenodd" clip-rule="evenodd" d="M1840.42 448.944C1680.72 193.764 1922.8 53.968 2165-7c-4.91 29.548 111.08-102.465 111.08-102.465-182.83 108.766-230.81 4.641-230.81 4.641-91.7 58.506-194.72 111.5-253.2 186.06l-.99 1.257c-64.31 82.981-73.41 192.67 49.11 365.953l.23.498z" fill="#fff"/></mask><g mask="url(#c)"><path fill-rule="evenodd" clip-rule="evenodd" d="M1876.08 454.592c-159.71-255.18 30.03-348.188 272.23-409.156-4.91 29.548 163.43-149.253 163.43-149.253-182.83 108.766-230.81 4.64-230.81 4.64-91.7 58.507-194.72 111.502-253.2 186.06l-.99 1.258c-64.31 82.981-73.41 192.67 49.11 365.953l.23.498z" fill="url(#paint3_linear)"/></g><path fill-rule="evenodd" clip-rule="evenodd" d="M2308.96-21c-102.97 283.884-296.03 150.75-492.93 0H1674c148.87 74.762 312.4 217.538 445.22 218h1.57c45.82-.241 87.93-17.556 124.49-60.682C2272.12 98.998 2288.92 47.576 2309-21h7-7.04z" fill="#FF88E4"/><mask id="d" maskUnits="userSpaceOnUse" x="1674" y="-21" width="643" height="218"><path fill-rule="evenodd" clip-rule="evenodd" d="M2308.96-21c-102.97 283.884-296.03 150.75-492.93 0H1674c148.87 74.762 312.4 217.538 445.22 218h1.57c45.82-.241 87.93-17.556 124.49-60.682C2272.12 98.998 2288.92 47.576 2309-21h7-7.04z" fill="#fff"/></mask><g mask="url(#d)"><path fill-rule="evenodd" clip-rule="evenodd" d="M2308.96-59c-102.97 283.884-296.03 150.75-492.93 0H1674c148.87 74.762 312.4 217.538 445.22 218h1.57c45.82-.241 87.93-17.556 124.49-60.682C2272.12 60.998 2288.92 9.576 2309-59h7-7.04z" fill="url(#paint4_linear)"/></g><path fill-rule="evenodd" clip-rule="evenodd" d="M1684 585c17.67 0 32-14.327 32-32 0-17.673-14.33-32-32-32s-32 14.327-32 32c0 17.673 14.33 32 32 32z" fill="#FFDDF7"/><path fill-rule="evenodd" clip-rule="evenodd" d="M1678.88 533.429c-.42-3.786-1.68-7.49-3.64-10.793a28.129 28.129 0 0 0-7.8-8.447c-.14-.102-.28-.211-.43-.308l-.44-.29c-.3-.192-.59-.394-.89-.567-.31-.179-.61-.361-.92-.536l-.94-.494a29.398 29.398 0 0 0-3.93-1.622 31.2 31.2 0 0 0-4.15-1.006c-1.41-.218-2.84-.34-4.27-.366-1.42-.003-2.85.081-4.27.272-1.42.208-2.82.511-4.2.912-1.37.417-2.71.933-4.01 1.539a29.243 29.243 0 0 0-3.73 2.123c-.32.227-.65.439-.97.678l-.93.717-.91.761c-.3.258-.58.532-.87.798a29.017 29.017 0 0 0-3.13 3.532c-.22.321-.46.634-.68.961l-.65.989-.6 1.018c-.19.339-.36.695-.55 1.042a27.652 27.652 0 0 0-1.76 4.371c-2.15 6.919-1.39 14.618 1.95 21.025.52 1.024 1.13 1.996 1.76 2.948l.51.697.25.348.27.336.54.671c.18.22.37.432.56.648.37.438.78.841 1.18 1.255.2.21.41.397.62.596.21.195.41.399.63.585.44.37.87.759 1.33 1.103l.68.53.7.5c.43.32.89.592 1.34.884.22.149.46.273.69.408l.7.397.72.363c.24.119.48.247.73.351.49.213.97.448 1.48.631 2 .787 4.08 1.347 6.2 1.68.35.051.69.089 1.04.134.17.02.34.046.52.062l.52.039c.34.022.69.06 1.04.068l1.04.024c.17.007.35.004.52-.003l.52-.014c.35-.01.69-.015 1.04-.049l1.04-.083 1.03-.135c1.37-.204 2.74-.481 4.06-.893 1.33-.404 2.63-.884 3.87-1.487a27.217 27.217 0 0 0 8.39-6.164 26.61 26.61 0 0 0 5.34-8.667c.54-1.438.98-2.928 1.3-4.437.3-1.508.5-3.038.5-4.546.01-.146.01-.283 0-.408l-.03-.346a4.117 4.117 0 0 0-.07-.506c-.07-.259-.16-.364-.29-.34-.13.024-.31.379-.47.855-.15.478-.34 1.072-.41 1.607a31.492 31.492 0 0 1-.97 4.285c-.12.35-.22.706-.34 1.055-.13.348-.25.699-.37 1.052-.14.346-.27.695-.41 1.047-.14.35-.29.695-.44 1.049-1.45 3.399-3.73 6.498-6.59 8.98a27.046 27.046 0 0 1-7.91 4.775c-1.62.62-3.28 1.104-5 1.407-1.71.302-3.47.422-5.24.318l-1.59-.085a24.21 24.21 0 0 1-4.91-.91c-.27-.068-.53-.159-.79-.246l-.79-.262-.77-.299-.38-.15a9.809 9.809 0 0 1-.38-.167l-.76-.337c-.25-.116-.49-.247-.74-.37-.49-.239-.97-.523-1.44-.794-.25-.131-.47-.29-.71-.434-.23-.151-.46-.29-.69-.45-.44-.321-.91-.623-1.33-.971-.22-.171-.44-.337-.65-.51l-.62-.538-.32-.269-.3-.283-.59-.567-.6-.615-.3-.308-.28-.321-.57-.642-.53-.666-.27-.334-.26-.345-.5-.691-.47-.714-.24-.358-.22-.367-.43-.737-.4-.756-.2-.379c-.07-.128-.12-.258-.19-.387l-.36-.776c-.11-.263-.21-.529-.32-.793l-.16-.397c-.05-.132-.09-.269-.14-.403l-.28-.809c-.08-.271-.16-.547-.23-.821-.05-.161-.1-.322-.14-.483-.05-.161-.08-.324-.12-.486-.08-.324-.17-.645-.23-.969-.07-.325-.14-.649-.2-.973-.04-.161-.06-.324-.09-.488l-.07-.489-.08-.49c-.02-.164-.03-.329-.05-.493-.03-.329-.07-.658-.1-.989-.02-.662-.07-1.328-.03-1.999.04-1.576.15-3.194.32-4.712.05-.425.16-.925.27-1.388.34-1.305.78-2.583 1.29-3.83a32.2 32.2 0 0 1 1.84-3.608c.14-.217.27-.435.4-.653.06-.108.12-.22.19-.326l.21-.318c.14-.211.28-.423.43-.633.15-.21.32-.407.48-.608.74-.882 1.53-1.704 2.34-2.509.42-.39.83-.795 1.26-1.166.22-.188.43-.386.65-.568l.67-.55c1.21-.99 2.61-1.773 3.99-2.505a25.472 25.472 0 0 1 5.62-2.163c1.95-.505 3.95-.769 5.96-.839 4.63-.17 9.3.844 13.42 2.871 1.8.876 3.48 1.986 5.03 3.247 1.54 1.268 2.95 2.689 4.26 4.205.38.422.72.892 1.07 1.364.17.234.33.488.49.734.16.25.33.496.47.758.15.259.3.518.44.778.15.261.28.533.41.798.28.529.51 1.082.75 1.618a26.403 26.403 0 0 1 1.44 4.405c.35 1.504.58 3.036.65 4.577.03.268.04.535.06.814.02.28.05.572.1.893.05-1.248.05-2.352-.09-3.485" fill="#FF88E4" fill-opacity=".48"/><path fill-rule="evenodd" clip-rule="evenodd" d="M1445 312c6.63 0 12-5.373 12-12s-5.37-12-12-12-12 5.373-12 12 5.37 12 12 12z" fill="#A0CBFD" fill-opacity=".64"/><path fill-rule="evenodd" clip-rule="evenodd" d="M1660 117c3.87 0 7-3.134 7-7s-3.13-7-7-7-7 3.134-7 7 3.13 7 7 7z" fill="#D9E0F0" fill-opacity=".64"/><g opacity=".72" fill-rule="evenodd" clip-rule="evenodd" fill="#FF88E4"><path d="M1489.7 248.219c-2.86-1.582-5.69-3.27-8.63-4.677-4.64-2.214-8.88-5.502-13.98-6.522-.39-.077-.97-.347-1.33-.592-3.96-2.758-8.59-3.922-12.8-6.095-1.64-.848-2.69-1.186-1.89.309.44.809-.95.33-1.8-.041-3.31-1.45-6.48-3.161-9.69-4.819-6.56-3.389-13.07-6.887-19.91-9.696-2.27-.932-4.44-2.087-6.61-3.254-8.36-4.49-16.73-8.966-25.12-13.42a7942.918 7942.918 0 0 0-32.17-17.009c-2.96-1.552-6.02-2.952-9.04-4.425-.12.402.61.714 1.14.999 9.06 4.914 18.11 9.841 27.2 14.722 11.83 6.355 23.72 12.631 35.52 19.016 9.94 5.375 19.8 10.849 29.67 16.303 1.27.7 2.58 1.511 3.57 2.335 2.01 1.666-.92.152-1.02.645 3.12 2.648 7.41 4.557 11.25 6.715 4.43 2.489 9.1 4.554 13.53 4.851.36.024.91.185 1.32.384 3.92 1.877 7.4 2.258 11.06 3.236 3.25.866 6.13.942 9.56 2.252.59.221 1.3.414 1.43.086.17-.418-.56-.914-1.26-1.303M1444.97 234.864c-5.55-2.221-10.47-5.065-15.58-7.771-5.03-2.658-10.02-5.362-15.05-8-1.32-.687-2.86-1.669-4.37-1.292 4.46 2.897 8.78 5.581 13.41 7.841 8.61 4.206 16.78 8.987 25.22 13.404 3.13 1.639 5.93 3.075 8.82 2.377-4.07-2.626-8.36-4.921-12.45-6.559M1377.73 199.783c-3.74-2.219-7.54-4.483-11.48-6.331-3.78-1.771-7-4.703-11.26-5.468 14.35 9.032 29.36 17.066 44.75 24.592-3.28-2.647-7.07-4.75-10.82-6.868-3.66-2.066-7.55-3.769-11.19-5.925"/></g><path fill-rule="evenodd" clip-rule="evenodd" d="M1415.46 59.252c-.18-.11-.36-.221-.57-.252.02 1.171 2.2 1.586 1.86.31-.58.374-.93.158-1.29-.058zm24.29 23.01c-.98-.751-.97-.778.26-.692.7.877-1.4 1.85-.26.693zm6.6 15.556c-.61-.7-1.32-1.506-1.36-.111.38-.246.89.313 1.31.774.46.497.81.88.77.013-.17-.047-.43-.35-.72-.676zm3.49 1.724c-.29-.76-1.53.295-.47.215.85.767 1.99-1.154.73-.907.11.302.19.596-.26.692zm5.05 8.64c.14.199.29.375.42.534v.001c.6.722.91 1.103-.51 1.804-.15-.198-.29-.373-.42-.532-.6-.723-.92-1.106.51-1.807zm85.15 5.293c-.02-1.175-2.39-1.099-1.86-.309.34-.131.56.057.78.245.28.239.56.478 1.08.064zM1526.06 110c-.48-.643 2.08-1.71 1.93-.318-.53-.15-1.19-.023-1.93.318zm-2.27.998c-.11-.009-.92-.484-.77-.935.12-.367 1.49.991.77.935zm6.21 3.018c.4.78.31 1.383.21 1.984l.9-.39.02-.008.87-.38-.54-1.15c-.34.149-.59.078-.84.008-.2-.054-.39-.108-.62-.064zm5-3.034c-.4.105-.6-.26-.8-.625a3.087 3.087 0 0 0-.2-.339c.4-.104.6.26.8.625.06.118.13.236.2.339z" fill="#8E79FC" fill-opacity=".48"/><path fill-rule="evenodd" clip-rule="evenodd" d="M1856.61 251.941c298.82 36.477 251.7 242.46 146.65 469.056l154.79 38.644c12.24-108.083 35.89-221.501 14.75-313.87l-.36-1.555c-24.01-102.206-103.53-178.305-315.3-192.138l-.53-.137z" fill="url(#paint5_linear)"/><path fill-rule="evenodd" clip-rule="evenodd" d="M1525.7 555.335c11.19-13.679 23.72-22.89 38.87-26.407z" fill="#3C95FB" fill-opacity=".32"/><path fill-rule="evenodd" clip-rule="evenodd" d="M1614.79 118.188c-10.26-2.493-19.26-6.68-28.19-10.912-3.75-1.779-9.12-3.951-7.27-7.653 1.14-2.304 5.54-1.762 8.92.156 9.08 5.156 19.39 9.114 26.54 18.409" fill="#3C95FB" fill-opacity=".64"/><path fill-rule="evenodd" clip-rule="evenodd" d="M2335.7 88.023c5.95 5.232 12.39 8.96 18.83 12.626 2.71 1.539 6.35 3.903 7.83 1.176.93-1.695-1.3-4.164-3.93-5.416-7.07-3.36-13.94-7.992-22.73-8.386" fill="#8E79FC" fill-opacity=".64"/><path fill-rule="evenodd" clip-rule="evenodd" d="M2127.53 449.096c-.98.709 96.22-54.653 96.22-54.653-66.17 128.019-120.97 184.408-165.47 200.696l-.75.273c-49.39 17.764-102.96 5.142-166.43-79.894 96.67 115.37 170.01 39.332 236.43-66.422z" fill="url(#paint6_linear)"/><path opacity=".72" fill-rule="evenodd" clip-rule="evenodd" d="M682.97 691.069c-.766-.213-1.546-.399-2.288-.666-.215-.078-.5-.188-.426-.75 1.087.15 1.935.7 2.714 1.416m2.234 1.357c-.534.435-1.181.498-1.386.122.605-.276.979-.208 1.386-.122m-19.296-7.025c1.001.663 2.055 1.237 3.061 1.896a118.472 118.472 0 0 0 6.001 3.662c.75.422 1.486.872 2.23 1.308.382.226.781.402 1.373.303l-.774-.649c.379-.152.584-.016.809.066.832.3 1.545.843 2.338 1.224.903.43 1.793.886 2.673 1.363.507.275 1.086.415 1.489.89.038.045.107.056.167.065.388.054.671.332.823.7.248.595.698.833 1.16 1.067 1.255.635 2.582 1.106 3.873 1.659a45.925 45.925 0 0 0 5.437 1.961c1.644.468 3.286.94 4.978 1.261 1.588.311 3.194.552 4.794.797 1.484.22 2.983.37 4.471.558.844.104 1.678.249 2.518.366.38.052.454-.061.375-.546-.036-.225-.064-.46-.134-.66-.258-.737-.461-1.557-1.023-1.947-.365-.253-.763-.411-.94-.944-.068-.208-.265-.251-.428-.325-.233-.107-.482-.183-.679-.371-.594-.567-1.316-.813-2.112-.889-.301-.03-.615-.072-.832-.297-.332-.343-.769-.392-1.187-.511-1.008-.282-2.147-.063-3.139-.436-.547-.207-1.205-.095-1.758-.339a1.808 1.808 0 0 0-.956-.121c-.369.052-.782.345-.945-.231-.021-.071-.184-.068-.285-.046-.295.067-.511-.069-.74-.194-.546-.302-1.165-.41-1.81-.373-.595.035-1.126-.079-1.66-.251-.293-.096-.286-.536-.522-.593-.598-.144-1.109-.509-1.738-.567-.121-.011-.245.007-.339-.092-.427-.445-.961-.592-1.596-.504a.603.603 0 0 1-.651-.378c-.156-.379-.43-.399-.75-.396-.482.004-.952-.034-1.219-.532-.102-.189-.282-.204-.479-.196-.527.022-1.018-.117-1.462-.312-.943-.413-1.848-.916-2.764-1.386-1.2-.615-2.485-1.057-3.606-1.832a3.621 3.621 0 0 0-.8-.392c-.28-.104-.569-.424-.808-.325-.446.184-.325-.464-.635-.381-.059.015-.116-.011-.176-.018-.103.575-.13.614-.441.452-.262-.137-.577-.152-.809-.366-.156-.146-.358-.19-.504.25-.065.197-.264.213-.344.147-.433-.361-.992-.371-1.531-.447a.382.382 0 0 1-.32-.263c-.057-.165-.155-.265-.324-.228-.439.097-.742-.142-1.081-.31-.357-.177-.683-.408-1.036-.59-.989-.506-2.111-.715-3.071-1.279a.898.898 0 0 0-.657-.108 1.172 1.172 0 0 1-.677-.05c-1.042-.402-2.208-.506-3.204-1.026-.112-.059-.207-.235-.399-.065.844.729 1.861 1.159 2.775 1.771" fill="#A0CBFD"/><path fill-rule="evenodd" clip-rule="evenodd" d="M728.619 570.011c.679.239 1.254.305 1.743-.012a.773.773 0 0 1 .444-.141c1.77.072 3.153-.789 4.654-1.342 1.634-.599 3.178-1.394 4.8-2.017 2.274-.869 4.606-1.596 6.871-2.465 1.033-.395 1.996-.958 3-1.428 2.865-1.363 5.833-2.498 8.768-3.694a53.703 53.703 0 0 0 4.472-2.102c.32-.165.649-.346.89-.627.728-.85 1.645-1.389 2.514-2.008.448-.321.835-.727 1.228-1.131.92-.931 1.826-1.894 2.786-2.779.919-.849 1.198-2.104 1.051-3.684-.036-.383-.177-.595-.485-.692-.562-.175-1.026-.049-1.45.262-1.372 1-2.855 1.783-4.323 2.589-2.049 1.135-4.322 1.726-6.525 2.494a102.41 102.41 0 0 0-5.659 2.156c-3.028 1.247-5.969 2.69-8.776 4.376-2.223 1.328-4.429 2.686-6.535 4.212-2.528 1.843-4.899 3.901-7.266 5.943-.596.519-1.221.993-1.823 1.499-.152.129-.373.194-.379.591" fill="#D9E0F0"/><g opacity=".72" fill-rule="evenodd" clip-rule="evenodd" fill="#B8ABFD"><path d="M2179.87 322.918c1.27 1.221 2.52 2.489 3.86 3.636 2.11 1.805 3.89 4.082 6.38 5.368.18.096.45.32.6.496 1.71 1.971 3.94 3.256 5.83 4.975.74.672 1.24.999 1 .137-.13-.467.52-.018.91.296 1.52 1.224 2.95 2.557 4.39 3.868 2.95 2.681 5.87 5.408 9.04 7.846 1.05.809 2.02 1.713 2.99 2.623 3.75 3.501 7.5 6.997 11.26 10.485 4.81 4.454 9.62 8.905 14.45 13.342 1.33 1.22 2.73 2.382 4.1 3.573.11-.18-.23-.447-.47-.668-4.05-3.819-8.1-7.643-12.17-11.45-5.3-4.955-10.64-9.881-15.92-14.847-4.45-4.181-8.85-8.399-13.25-12.609-.57-.541-1.14-1.142-1.55-1.702-.83-1.131.49.067.59-.162-1.28-1.788-3.25-3.39-4.96-5.045-1.97-1.91-4.11-3.646-6.34-4.472a2.44 2.44 0 0 1-.63-.392c-1.78-1.529-3.51-2.25-5.27-3.295-1.56-.926-3.02-1.406-4.62-2.579-.27-.199-.61-.404-.72-.262-.13.181.18.538.5.838M2201.1 336.444c2.65 1.92 4.82 4.156 7.12 6.328 2.27 2.133 4.5 4.291 6.78 6.413.59.552 1.25 1.309 2.18 1.233-1.9-2.221-3.76-4.299-5.88-6.149-3.96-3.443-7.54-7.191-11.36-10.745-1.41-1.318-2.68-2.48-4.46-2.349 1.73 2.016 3.67 3.853 5.62 5.269M2230.82 364.149c1.64 1.74 3.31 3.513 5.14 5.047 1.75 1.47 2.95 3.592 5.19 4.498-6.18-6.991-12.95-13.442-20.04-19.621 1.29 1.953 2.98 3.627 4.65 5.306 1.63 1.639 3.46 3.08 5.06 4.77"/></g><path fill-rule="evenodd" clip-rule="evenodd" d="M2267.46 120.252c-.18-.11-.36-.221-.57-.252.02 1.171 2.2 1.586 1.86.309-.58.375-.93.159-1.29-.057zm24.29 23.01c-.98-.751-.97-.778.26-.692.7.877-1.4 1.85-.26.692zm6.6 15.556c-.61-.7-1.32-1.506-1.36-.111.38-.246.89.313 1.31.774.46.497.81.88.77.013-.17-.047-.43-.35-.72-.676zm3.49 1.724c-.29-.761-1.54.295-.47.215.85.767 1.99-1.154.73-.907.11.302.19.596-.26.692zm5.05 8.64c.14.199.29.375.42.534v.001c.6.722.91 1.103-.51 1.804-.15-.198-.29-.373-.42-.532-.6-.723-.92-1.106.51-1.807zm85.15 5.293c-.02-1.175-2.39-1.099-1.86-.309.34-.131.56.057.78.245.28.239.56.478 1.08.064zM2378.06 171c-.48-.643 2.08-1.71 1.93-.318-.54-.15-1.19-.023-1.93.318zm-2.27.998c-.11-.009-.92-.484-.77-.935.12-.367 1.49.991.77.935zm6.21 3.018c.4.78.31 1.383.21 1.984l.9-.39.02-.008.87-.38-.54-1.15c-.34.149-.59.078-.84.008-.2-.054-.39-.108-.62-.064zm5-3.034c-.4.105-.6-.26-.8-.625a3.087 3.087 0 0 0-.2-.339c.4-.104.6.26.8.625.06.118.13.236.2.339z" fill="#8E79FC" fill-opacity=".64"/><g filter="url(#filter0_d)"><path d="M1554.69 137.548l100.95 144.171-108.68-1.785 7.73-142.386z" fill="url(#paint7_linear)"/><path d="M1655.27 282.284l-100.38-143.351 135.85 40.584-35.47 102.767z" fill="url(#paint8_linear)"/></g><path fill-rule="evenodd" clip-rule="evenodd" d="M2024 228c46.39 0 84-37.608 84-84s-37.61-84-84-84-84 37.608-84 84 37.61 84 84 84z" fill="url(#paint9_radial)" filter="url(#filter1_d)"/><mask id="e" maskUnits="userSpaceOnUse" x="1940" y="60" width="169" height="168"><path fill-rule="evenodd" clip-rule="evenodd" d="M2024 228c46.39 0 84-37.608 84-84s-37.61-84-84-84-84 37.608-84 84 37.61 84 84 84z" fill="#fff"/></mask><path fill-rule="evenodd" clip-rule="evenodd" d="M1765 298c20.44 0 37-16.565 37-37s-16.56-37-37-37c-20.43 0-37 16.565-37 37s16.57 37 37 37z" fill="url(#paint10_radial)" filter="url(#filter2_d)"/><mask id="f" maskUnits="userSpaceOnUse" x="1728" y="224" width="75" height="74"><path fill-rule="evenodd" clip-rule="evenodd" d="M1765 298c20.44 0 37-16.565 37-37s-16.56-37-37-37c-20.43 0-37 16.565-37 37s16.57 37 37 37z" fill="#fff"/></mask><g filter="url(#filter3_d)"><path fill-rule="evenodd" clip-rule="evenodd" d="M623.353 667L509 600.803 557.706 467l115.059 19.718L701 588.127 623.353 667z" fill="url(#paint11_linear)"/><mask id="g" maskUnits="userSpaceOnUse" x="509" y="467" width="193" height="200"><path fill-rule="evenodd" clip-rule="evenodd" d="M623.353 667L509 600.803 557.706 467l115.059 19.718L701 588.127 623.353 667z" fill="#fff"/></mask><g mask="url(#g)" fill-rule="evenodd" clip-rule="evenodd"><path d="M556 464.346l108.12 93.849L731.96 609 768 541.965l-4.24-44.454-52.293-33.165-40.28-14.818L600.52 446 556 464.346z" fill="url(#paint12_linear)"/><path d="M705.64 545L500 603.246l30.387 52.631s42.4 25.965 45.227 28.07c2.826 2.106 100.346 0 100.346 0L712 639.035 705.64 545z" fill="url(#paint13_linear)"/><path d="M674.395 482l-9.92 75.972L617 686l92.115-23.214 26.925-51.352 4.96-85.82L674.395 482z" fill="#58678C" fill-opacity=".12"/></g></g><path fill-rule="evenodd" clip-rule="evenodd" d="M1930 341c8.84 0 16-7.163 16-16s-7.16-16-16-16-16 7.163-16 16 7.16 16 16 16z" fill="url(#paint14_radial)" filter="url(#filter4_d)"/><mask id="h" maskUnits="userSpaceOnUse" x="1914" y="309" width="33" height="32"><path fill-rule="evenodd" clip-rule="evenodd" d="M1930 341c8.84 0 16-7.163 16-16s-7.16-16-16-16-16 7.163-16 16 7.16 16 16 16z" fill="#fff"/></mask><path fill-rule="evenodd" clip-rule="evenodd" d="M2187 283c17.67 0 32-14.327 32-32 0-17.673-14.33-32-32-32s-32 14.327-32 32c0 17.673 14.33 32 32 32z" fill="url(#paint15_radial)" filter="url(#filter5_d)"/><mask id="i" maskUnits="userSpaceOnUse" x="2155" y="219" width="65" height="64"><path fill-rule="evenodd" clip-rule="evenodd" d="M2187 283c17.67 0 32-14.327 32-32 0-17.673-14.33-32-32-32s-32 14.327-32 32c0 17.673 14.33 32 32 32z" fill="#fff"/></mask><defs><filter id="filter0_d" x="1394.6" y="32.458" width="420.748" height="419.736" filterUnits="userSpaceOnUse" color-interpolation-filters="sRGB"><feFlood flood-opacity="0" result="BackgroundImageFix"/><feColorMatrix in="SourceAlpha" values="0 0 0 0 0 0 0 0 0 0 0 0 0 0 0 0 0 0 127 0"/><feOffset dy="32"/><feGaussianBlur stdDeviation="44"/><feColorMatrix values="0 0 0 0 0.168627 0 0 0 0 0.168627 0 0 0 0 0.321569 0 0 0 0.24 0"/><feBlend in2="BackgroundImageFix" result="effect1_dropShadow"/><feBlend in="SourceGraphic" in2="effect1_dropShadow" result="shape"/></filter><filter id="filter1_d" x="1852" y="4" width="344" height="344" filterUnits="userSpaceOnUse" color-interpolation-filters="sRGB"><feFlood flood-opacity="0" result="BackgroundImageFix"/><feColorMatrix in="SourceAlpha" values="0 0 0 0 0 0 0 0 0 0 0 0 0 0 0 0 0 0 127 0"/><feOffset dy="32"/><feGaussianBlur stdDeviation="44"/><feColorMatrix values="0 0 0 0 0.168627 0 0 0 0 0.168627 0 0 0 0 0.321569 0 0 0 0.24 0"/><feBlend in2="BackgroundImageFix" result="effect1_dropShadow"/><feBlend in="SourceGraphic" in2="effect1_dropShadow" result="shape"/></filter><filter id="filter2_d" x="1640" y="168" width="250" height="250" filterUnits="userSpaceOnUse" color-interpolation-filters="sRGB"><feFlood flood-opacity="0" result="BackgroundImageFix"/><feColorMatrix in="SourceAlpha" values="0 0 0 0 0 0 0 0 0 0 0 0 0 0 0 0 0 0 127 0"/><feOffset dy="32"/><feGaussianBlur stdDeviation="44"/><feColorMatrix values="0 0 0 0 0.168627 0 0 0 0 0.168627 0 0 0 0 0.321569 0 0 0 0.24 0"/><feBlend in2="BackgroundImageFix" result="effect1_dropShadow"/><feBlend in="SourceGraphic" in2="effect1_dropShadow" result="shape"/></filter><filter id="filter3_d" x="421" y="411" width="368" height="376" filterUnits="userSpaceOnUse" color-interpolation-filters="sRGB"><feFlood flood-opacity="0" result="BackgroundImageFix"/><feColorMatrix in="SourceAlpha" values="0 0 0 0 0 0 0 0 0 0 0 0 0 0 0 0 0 0 127 0"/><feOffset dy="32"/><feGaussianBlur stdDeviation="44"/><feColorMatrix values="0 0 0 0 0.168627 0 0 0 0 0.168627 0 0 0 0 0.321569 0 0 0 0.24 0"/><feBlend in2="BackgroundImageFix" result="effect1_dropShadow"/><feBlend in="SourceGraphic" in2="effect1_dropShadow" result="shape"/></filter><filter id="filter4_d" x="1826" y="253" width="208" height="208" filterUnits="userSpaceOnUse" color-interpolation-filters="sRGB"><feFlood flood-opacity="0" result="BackgroundImageFix"/><feColorMatrix in="SourceAlpha" values="0 0 0 0 0 0 0 0 0 0 0 0 0 0 0 0 0 0 127 0"/><feOffset dy="32"/><feGaussianBlur stdDeviation="44"/><feColorMatrix values="0 0 0 0 0.168627 0 0 0 0 0.168627 0 0 0 0 0.321569 0 0 0 0.24 0"/><feBlend in2="BackgroundImageFix" result="effect1_dropShadow"/><feBlend in="SourceGraphic" in2="effect1_dropShadow" result="shape"/></filter><filter id="filter5_d" x="2067" y="163" width="240" height="240" filterUnits="userSpaceOnUse" color-interpolation-filters="sRGB"><feFlood flood-opacity="0" result="BackgroundImageFix"/><feColorMatrix in="SourceAlpha" values="0 0 0 0 0 0 0 0 0 0 0 0 0 0 0 0 0 0 127 0"/><feOffset dy="32"/><feGaussianBlur stdDeviation="44"/><feColorMatrix values="0 0 0 0 0.168627 0 0 0 0 0.168627 0 0 0 0 0.321569 0 0 0 0.24 0"/><feBlend in2="BackgroundImageFix" result="effect1_dropShadow"/><feBlend in="SourceGraphic" in2="effect1_dropShadow" result="shape"/></filter><linearGradient id="paint0_linear" x1="2348.18" y1="26.634" x2="2101.44" y2="177.274" gradientUnits="userSpaceOnUse"><stop stop-color="#E2DDFE" stop-opacity=".01"/><stop offset="1" stop-color="#E2DDFE" stop-opacity=".88"/></linearGradient><linearGradient id="paint1_linear" x1="1892.72" y1="434.684" x2="1829.96" y2="64.296" gradientUnits="userSpaceOnUse"><stop stop-color="#B8ABFD"/><stop offset="1" stop-color="#B8ABFD"/></linearGradient><linearGradient id="paint2_linear" x1="1774.52" y1="275.21" x2="1673.47" y2="231.59" gradientUnits="userSpaceOnUse"><stop stop-color="#fff"/><stop offset="1" stop-color="#fff" stop-opacity=".01"/></linearGradient><linearGradient id="paint3_linear" x1="1814.72" y1="331.388" x2="2175.52" y2="214.307" gradientUnits="userSpaceOnUse"><stop stop-color="#6448FB" stop-opacity=".48"/><stop offset="1" stop-color="#6448FB" stop-opacity=".01"/></linearGradient><linearGradient id="paint4_linear" x1="2246.37" y1="106.939" x2="2207.95" y2="-60.259" gradientUnits="userSpaceOnUse"><stop stop-color="#FFDDF7" stop-opacity=".48"/><stop offset="1" stop-color="#FFDDF7" stop-opacity=".01"/></linearGradient><linearGradient id="paint5_linear" x1="2086.8" y1="218.778" x2="1890.94" y2="221.646" gradientUnits="userSpaceOnUse"><stop stop-color="#fff"/><stop offset="1" stop-color="#fff" stop-opacity=".01"/></linearGradient><linearGradient id="paint6_linear" x1="1988.35" y1="445.62" x2="2089.27" y2="566.199" gradientUnits="userSpaceOnUse"><stop stop-color="#FF88E4"/><stop offset="1" stop-color="#FF88E4" stop-opacity=".01"/></linearGradient><linearGradient id="paint7_linear" x1="1506.05" y1="134.072" x2="1496.29" y2="270.622" gradientUnits="userSpaceOnUse"><stop stop-color="#fff"/><stop offset="1" stop-color="#F0F4FD"/></linearGradient><linearGradient id="paint8_linear" x1="1550.65" y1="195.313" x2="1674.57" y2="204.638" gradientUnits="userSpaceOnUse"><stop stop-color="#F0F4FD"/><stop offset="1" stop-color="#D9E0F0"/></linearGradient><radialGradient id="paint9_radial" cx="0" cy="0" r="1" gradientUnits="userSpaceOnUse" gradientTransform="matrix(0 168 -168 0 2024 60)"><stop stop-color="#fff"/><stop offset=".569" stop-color="#F0F4FD"/><stop offset="1" stop-color="#D9E0F0"/></radialGradient><radialGradient id="paint10_radial" cx="0" cy="0" r="1" gradientUnits="userSpaceOnUse" gradientTransform="matrix(0 74 -74 0 1765 224)"><stop stop-color="#fff"/><stop offset=".569" stop-color="#F0F4FD"/><stop offset=".993" stop-color="#D9E0F0"/></radialGradient><linearGradient id="paint11_linear" x1="465.829" y1="499.143" x2="532.265" y2="697.563" gradientUnits="userSpaceOnUse"><stop stop-color="#fff"/><stop offset="1" stop-color="#F0F4FD"/></linearGradient><linearGradient id="paint12_linear" x1="774.881" y1="529.18" x2="673.642" y2="388.977" gradientUnits="userSpaceOnUse"><stop stop-color="#F0F4FD"/><stop offset="1" stop-color="#95A1BC" stop-opacity=".48"/></linearGradient><linearGradient id="paint13_linear" x1="540.466" y1="587.625" x2="551.232" y2="668.622" gradientUnits="userSpaceOnUse"><stop stop-color="#95A1BC" stop-opacity=".32"/><stop offset="1" stop-color="#D9E0F0" stop-opacity=".24"/></linearGradient><radialGradient id="paint14_radial" cx="0" cy="0" r="1" gradientUnits="userSpaceOnUse" gradientTransform="matrix(0 32 -32 0 1930 309)"><stop stop-color="#fff"/><stop offset=".569" stop-color="#F0F4FD"/><stop offset=".993" stop-color="#D9E0F0"/></radialGradient><radialGradient id="paint15_radial" cx="0" cy="0" r="1" gradientUnits="userSpaceOnUse" gradientTransform="matrix(0 64 -64 0 2187 219)"><stop stop-color="#fff"/><stop offset=".569" stop-color="#F0F4FD"/><stop offset=".993" stop-color="#D9E0F0"/></radialGradient></defs></svg>