<svg width="712" height="400" xmlns="http://www.w3.org/2000/svg" xmlns:xlink="http://www.w3.org/1999/xlink"><defs><path id="a" d="M0 0h712v400H0z"/><filter x="-119.8%" y="-115%" width="339.6%" height="330%" filterUnits="objectBoundingBox" id="c"><feOffset dy="32" in="SourceAlpha" result="shadowOffsetOuter1"/><feGaussianBlur stdDeviation="44" in="shadowOffsetOuter1" result="shadowBlurOuter1"/><feColorMatrix values="0 0 0 0 0.168627451 0 0 0 0 0.168627451 0 0 0 0 0.321568627 0 0 0 0.24 0" in="shadowBlurOuter1" result="shadowMatrixOuter1"/><feMerge><feMergeNode in="shadowMatrixOuter1"/><feMergeNode in="SourceGraphic"/></feMerge></filter><linearGradient x1="27.515%" y1="0%" x2="59.658%" y2="100%" id="e"><stop stop-color="#FFF" offset="0%"/><stop stop-color="#F0F4FD" offset="100%"/></linearGradient><path id="d" d="M114.353 200L0 133.803 48.706 0l115.059 19.718L192 121.127z"/><linearGradient x1="68.479%" y1="83.682%" x2="3.177%" y2="14.149%" id="f"><stop stop-color="#F0F4FD" offset="0%"/><stop stop-color="#95A1BC" stop-opacity=".48" offset="100%"/></linearGradient><linearGradient x1="47.38%" y1="24.752%" x2="58.769%" y2="81.336%" id="h"><stop stop-color="#95A1BC" stop-opacity=".32" offset="0%"/><stop stop-color="#D9E0F0" stop-opacity=".24" offset="100%"/></linearGradient><radialGradient cy="0%" fx="50%" fy="0%" r="100%" id="k"><stop stop-color="#FFF" offset="0%"/><stop stop-color="#F0F4FD" offset="56.941%"/><stop stop-color="#D9E0F0" offset="99.282%"/></radialGradient><circle id="i" cx="490" cy="114" r="16"/><filter x="-462.5%" y="-362.5%" width="1025%" height="1025%" filterUnits="objectBoundingBox" id="j"><feOffset dy="32" in="SourceAlpha" result="shadowOffsetOuter1"/><feGaussianBlur stdDeviation="44" in="shadowOffsetOuter1" result="shadowBlurOuter1"/><feColorMatrix values="0 0 0 0 0.168627451 0 0 0 0 0.168627451 0 0 0 0 0.321568627 0 0 0 0.24 0" in="shadowBlurOuter1"/></filter><circle id="l" cx="220" cy="187" r="6"/><filter x="-1233.3%" y="-966.7%" width="2566.7%" height="2566.7%" filterUnits="objectBoundingBox" id="m"><feOffset dy="32" in="SourceAlpha" result="shadowOffsetOuter1"/><feGaussianBlur stdDeviation="44" in="shadowOffsetOuter1" result="shadowBlurOuter1"/><feColorMatrix values="0 0 0 0 0.168627451 0 0 0 0 0.168627451 0 0 0 0 0.321568627 0 0 0 0.24 0" in="shadowBlurOuter1"/></filter></defs><g fill="none" fill-rule="evenodd"><mask id="b" fill="#fff"><use xlink:href="#a"/></mask><use fill="#8E79FC" xlink:href="#a"/><path d="M517.138 325.61c5.927 0 11.864-.146 17.753.027 21.398.629 42.784 1.34 64.166 2.07 16.738.57 33.468 1.19 50.192 1.84 4.347.169 8.68.322 12.998.047 13.025-.832 26.051-.325 39.065-.025 6.37.147 12.727.404 19.095.145 1.63-.064 4.203-.38 2.888-1.318-2.428-1.735-.507-2.006 2.752-1.932 8.35.19 16.596-1.534 25.01-.235.75.116 1.891.088 2.557-.086 8.874-2.308 18.153-.395 27.211-.467 5.758-.044 11.542.442 17.302.734 1.417.072 2.953.295 3.01 1.084.045.616-1.24.862-2.332.958-6.452.573-11.085 2.666-16.9 3.793-6.57 1.274-12.373 3.34-20.04 3.395-.812.005-1.802.171-2.393.411-7.252 2.932-16.251 3.265-25.197 2.747-7.755-.45-16.035-.16-23.03-1.93-.232-.847 5.586-.717 1.122-1.8-2.21-.535-4.916-.804-7.467-.932-19.87-1.006-39.736-2.052-59.648-2.883-23.652-.986-47.357-1.736-71.024-2.656-18.185-.706-36.347-1.512-54.515-2.289-1.052-.045-2.457.028-2.575-.698zm224.36 15.097c-3.936 3.157-9.333 3.048-15.396 2.883-16.353-.45-32.552-1.648-49.008-1.656-8.843-.004-17.532-.867-26.596-1.949 2.042-1.666 5.167-1.321 7.71-1.252 9.76.271 19.497.674 29.25.984 9.932.317 19.659.985 29.89.262 7.545-.536 15.902-.237 24.15.728zm-109.504-1.383c-30.566-.031-60.925-1.095-91-4.145 7.42-1.96 14.883.077 22.321-.028 7.769-.111 15.63.505 23.366 1.094 7.52.572 15.092.28 22.586.699 7.672.43 15.395.812 22.727 2.38zM617.56 352.78c-26.904.23-53.341-1.999-80-2.972 26.864-.17 53.422 1.609 80 2.972zm-173.482-4.92c8.434-.813 16.78-1.856 25 .097-8.385 1.182-16.756 1.212-25-.097zM440 331.098c-7.933.793-15.225.261-23-.852 9.564-1.26 18.003-.97 23 .852z" fill="#6448FB" mask="url(#b)" transform="rotate(150 609.07 338.898)"/><rect fill="#FF88E4" mask="url(#b)" x="376" y="239" width="56" height="56" rx="28"/><path d="M299.139 237.004a46.288 46.288 0 0 1-6.897-.589c3.998.048 7.991-.256 12 .281-1.701.111-3.403.325-5.103.308m-.938 3.237c.878-.003 1.726-.15 2.491.299 1.265.74 2.805.937 4.352 1.076a5209.59 5209.59 0 0 0 17.558 1.542c.4.034.85.04.86.39.022.95 1.012.924 1.85.954 1.345.047-1.036.832.459 1.001 1.138.129 2.233.317 3.414.299 2.452-.037 4.874.126 6.79 1.435.722.493 1.58.482 2.454.469 6.99-.105 13.93.564 20.906.738 7.068.177 14.12.695 21.178 1.078 7.229.392 14.457.352 21.64 1.606 9.821 1.714 19.959 2.035 30.052 2.305.537.015 1.177.237 1.638-.591-2.794-.886-5.904-.518-9.15-1.13.8-.093 1.173-.13 1.542-.181 5.955-.813 11.773.44 17.658.662 3.29.123 6.571.29 9.867.253 4.853-.055 9.712-.217 14.523.444.585.08 1.239.078 1.705.649l-5.915.66c1.92.258 3.792.296 5.7-.024 1.492-.25 3.013-.572 4.597-.296 5.095.888 10.273 1.487 15.35 2.457 5.88 1.122 11.563 1.196 15.793-2.792.112-.105.31-.17.484-.23 2.264-.793 3.236-2.307 4.247-3.843 1.952-2.968 2.73-6.284 5.342-9.065 1.302-1.387 2.282-2.885 4.156-4.005 1.713-1.024 1.598-2.81.132-4.42-.687-.755-2.96-1.212-4.468-.76-1.426.427-3.043.817-4.068 1.58-1.8 1.342-3.895 1.383-6.152 1.369-3.785-.024-7.524-.558-11.327-.442-8.16.25-16.29-.375-24.436-.538-3.002-.06-6.011-.244-8.988-.53-4.999-.482-10.017-.881-15.02-1.279-3.927-.312-7.914-.563-11.806-.957-6.738-.682-13.512-1.055-20.264-1.437-7.883-.446-15.74-1.418-23.743-.814-3.987.301-8.004-.591-12.1-.552-4.216.04-8.43-.687-12.69-.856-6.385-.253-12.755-.96-19.13.03-.73.113-1.317-.129-1.955-.288-2.264-.569-4.65-.533-6.827-.051-2.388.529-4.77.555-7.154.526-5.422-.065-10.843-.434-16.26-.398-8.942.058-17.779-.748-26.646-1.339-.951-.063-1.894-.115-2.763-.544-2.364-1.166-4.98-1.759-7.88-1.697-8.062.173-16.058.843-24.054 1.555-7.8.694-15.616 1.285-23.427 1.915-1.934.156-3.889.233-5.716.87 1.473.51 3.015.446 4.53.468 1.556.022 3.107.01 4.627.31 3.736.74 7.774.161 11.41 1.356.164.053.386.026.579.019 6.704-.226 13.372.62 20.077.352 1.781-.07 3.406.343 5.09.73 4.433 1.019 8.917 1.959 13.65 1.862 1.661-.033 3.299.033 4.898.39 1.123.25 2.277.317 3.45.348 6.802.178 13.563-.293 20.284-.901 6.77-.611 13.57-.553 20.323-.462 8.616.115 17.233.419 25.858.451 3.975.015 7.998-.189 11.91.188 3.351.323 6.685.666 10.053.674 4.57.01 9.108.352 13.656.563 3.542.164 7.12.367 10.697 1.139-3.581 1.833-7.525.848-11.526.967.867 1.066 1.86 1.454 3.038 1.585 2.493.276 5.017.8 7.488.702 6.161-.245 12.149.952 18.268.893.991-.01 2.015.105 3.478.758-1.616.002-2.578-.003-3.539.005-6.03.051-11.966-.792-17.976-1.001-3.581-.125-7.172-.192-10.754-.384-6.665-.357-13.342-.593-20.012-.909-5.136-.243-10.303-.004-15.414-.288-8.14-.451-16.294-.273-24.436-.619-7.933-.337-15.907-.177-23.863-.254-.656-.006-1.308-.152-1.962-.234 11.904-.384 23.753-.258 35.886-.609-.5-.593-.98-.687-1.44-.658-3.896.246-7.725-.43-11.61-.407-7.182.043-14.364-.017-21.546-.009-5.243.006-10.488.045-15.732.089-1.177.01-2.143.287-2.073 1.334.061.913.948 1.136 2.004 1.183 5.806.255 11.582.857 17.414.801 2.33-.022 4.66-.106 6.987-.074 11.065.153 22.13.132 33.193.427 6.11.162 12.228.241 18.327.548 2.219.111 4.527.088 6.74.645-.313.456-.717.454-1.083.452-6.498-.026-13 .054-19.49-.12-8.24-.223-16.47-.644-24.718-.643-2.324 0-4.646.232-6.97.255-6.685.067-13.372.073-20.058.117-2.909.019-5.824.208-8.69-.36-.734-.144-1.53-.252-2.455.391 2.184 1.06 4.448.836 6.633.827" fill="#B8ABFD" mask="url(#b)" transform="rotate(146 372 240)"/><path d="M218.985 168.504a20.887 20.887 0 0 1-4.598-.589c2.666.048 5.328-.256 8 .281-1.134.111-2.268.325-3.402.308m-.533 1.652c.565-.002 1.112-.097 1.605.193.814.48 1.807.607 2.803.697 3.77.34 7.542.67 11.313.997.258.022.548.026.554.252.015.615.652.599 1.192.618.867.03-.667.538.296.648.733.083 1.439.205 2.2.193 1.58-.024 3.14.082 4.375.929.464.319 1.017.312 1.58.303 4.504-.068 8.975.365 13.47.478 4.554.114 9.098.45 13.645.697 4.657.254 9.314.228 13.942 1.04 6.328 1.108 12.86 1.316 19.363 1.491.346.01.758.153 1.055-.383-1.8-.573-3.804-.334-5.895-.73.515-.061.755-.085.993-.118 3.837-.526 7.586.285 11.378.428 2.12.08 4.233.188 6.357.164 3.126-.035 6.257-.14 9.357.288.376.051.798.05 1.099.42l-3.812.427c1.237.166 2.443.191 3.672-.016.962-.161 1.942-.37 2.963-.192 3.282.575 6.618.963 9.89 1.59 3.788.726 7.45.774 10.175-1.806.072-.068.2-.11.311-.149 1.459-.513 2.086-1.493 2.737-2.487 1.257-1.92 1.76-4.066 3.442-5.865.839-.898 1.47-1.867 2.678-2.592 1.103-.662 1.029-1.818.084-2.86-.442-.488-1.907-.784-2.878-.491-.919.276-1.961.528-2.621 1.022-1.16.868-2.51.895-3.964.885-2.438-.015-4.848-.36-7.298-.285-5.257.162-10.495-.243-15.744-.348a76.07 76.07 0 0 1-5.791-.344c-3.22-.311-6.454-.57-9.677-.827-2.53-.202-5.099-.365-7.607-.62-4.341-.44-8.705-.682-13.056-.93-5.079-.288-10.14-.917-15.297-.526-2.57.195-5.157-.382-7.796-.357-2.716.026-5.432-.444-8.176-.554-4.114-.164-8.218-.621-12.326.02-.47.073-.848-.084-1.259-.187-1.459-.368-2.996-.345-4.399-.033-1.539.342-3.073.36-4.609.34-3.493-.041-6.986-.28-10.477-.257-5.76.038-11.454-.484-17.167-.866-.613-.04-1.22-.075-1.78-.353-1.523-.754-3.21-1.137-5.078-1.097-5.194.112-10.345.545-15.497 1.005-5.025.45-10.062.832-15.094 1.24-1.246.101-2.506.15-3.683.563.949.33 1.943.288 2.919.303 1.002.014 2.001.006 2.981.2 2.407.479 5.008.105 7.352.878.105.034.248.016.372.012 4.32-.146 8.615.402 12.936.228 1.147-.046 2.194.221 3.28.472 2.855.66 5.745 1.268 8.793 1.205 1.071-.021 2.126.021 3.156.253.724.162 1.468.205 2.223.225 4.383.115 8.739-.19 13.07-.584 4.362-.395 8.742-.357 13.093-.298 5.551.074 11.104.27 16.66.291 2.561.01 5.154-.122 7.675.122 2.158.209 4.306.431 6.476.436 2.945.006 5.869.228 8.799.364 2.282.107 4.587.238 6.891.737-2.307 1.187-4.847.55-7.425.626.558.69 1.198.941 1.957 1.025 1.606.179 3.232.519 4.825.455 3.969-.159 7.827.616 11.77.578.638-.007 1.298.068 2.24.49-1.041.002-1.66-.002-2.28.004-3.885.033-7.71-.513-11.582-.648-2.307-.081-4.62-.125-6.928-.249-4.295-.23-8.597-.383-12.894-.588-3.31-.157-6.639-.003-9.931-.186-5.245-.292-10.498-.177-15.744-.4-5.112-.22-10.25-.115-15.375-.165-.423-.004-.843-.099-1.264-.151 7.67-.249 15.304-.168 23.12-.394-.32-.385-.63-.445-.926-.426-2.51.158-4.978-.278-7.481-.264-4.627.028-9.255-.01-13.882-.005-3.378.004-6.757.029-10.136.057-.759.006-1.381.186-1.336.863.04.591.61.735 1.291.766 3.741.165 7.462.554 11.22.518 1.501-.014 3.003-.069 4.502-.048 7.129.099 14.258.085 21.386.276 3.937.105 7.878.156 11.808.355 1.43.072 2.917.057 4.342.418-.201.294-.462.293-.698.292-4.186-.017-8.375.034-12.557-.078-5.308-.144-10.61-.417-15.925-.416-1.497 0-2.994.15-4.49.165-4.308.043-8.616.047-12.924.075-1.874.013-3.752.135-5.6-.232-.472-.093-.984-.163-1.58.253 1.406.685 2.865.54 4.273.535" fill="#6448FB" mask="url(#b)" transform="rotate(26 266 170)"/><g filter="url(#c)" mask="url(#b)"><g transform="translate(260 100)"><mask id="g" fill="#fff"><use xlink:href="#d"/></mask><use fill="url(#e)" xlink:href="#d"/><path d="M47-2.654l108.12 93.849L222.96 142 259 74.965l-4.24-44.454-52.293-33.165-40.28-14.818L91.52-21 47-2.654z" fill="url(#f)" mask="url(#g)"/><path d="M196.64 78L-9 136.246l30.387 52.631c28.266 17.31 43.342 26.667 45.226 28.07 1.885 1.404 35.334 1.404 100.347 0L203 172.035 196.64 78z" fill="url(#h)" mask="url(#g)"/><path fill-opacity=".12" fill="#58678C" mask="url(#g)" d="M165.394 15l-9.92 75.972L108 219l92.114-23.214 26.926-51.352 4.96-85.82z"/></g></g><rect fill="#6EB0FC" mask="url(#b)" transform="matrix(1 0 0 -1 0 522)" x="450" y="255" width="12" height="12" rx="6"/><use fill="#000" filter="url(#j)" xlink:href="#i"/><use fill="url(#k)" xlink:href="#i"/><g opacity=".48"><use fill="#000" filter="url(#m)" xlink:href="#l"/><use fill="url(#k)" xlink:href="#l"/></g></g></svg>