<svg width="32" height="32" xmlns="http://www.w3.org/2000/svg" xmlns:xlink="http://www.w3.org/1999/xlink"><defs><linearGradient x1="27.515%" y1="0%" x2="59.046%" y2="98.097%" id="b"><stop stop-color="#8E79FC" offset="0%"/><stop stop-color="#8E79FC" stop-opacity=".64" offset="100%"/></linearGradient><path id="a" d="M17.868 32L0 21.408 7.61 0l17.978 3.155L30 19.38z"/><linearGradient x1="46.269%" y1="20.219%" x2="58.769%" y2="81.336%" id="c"><stop stop-color="#6448FB" offset="0%"/><stop stop-color="#6448FB" stop-opacity="0" offset="100%"/></linearGradient><linearGradient x1="73.227%" y1="24.043%" x2="8.84%" y2="78.933%" id="e"><stop stop-color="#FFF" offset="0%"/><stop stop-color="#FFF" stop-opacity=".24" offset="100%"/></linearGradient></defs><g transform="translate(1)" fill="none" fill-rule="evenodd"><mask id="d" fill="#fff"><use xlink:href="#a"/></mask><use fill="url(#b)" xlink:href="#a"/><path d="M30.98 12L-2 21.569l4.873 8.647c4.534 2.843 6.951 4.38 7.254 4.611.302.23 5.666.23 16.093 0L32 27.45 30.98 12z" fill="url(#c)" mask="url(#d)"/><path d="M6-1.074l17.34 14.97L34.22 22 40 11.307l-.68-7.09-8.387-5.29-6.46-2.364L13.14-4 6-1.074z" fill="url(#e)" mask="url(#d)"/></g></svg>