<?xml version="1.0" encoding="UTF-8" standalone="no"?>
<svg
   xmlns:dc="http://purl.org/dc/elements/1.1/"
   xmlns:cc="http://creativecommons.org/ns#"
   xmlns:rdf="http://www.w3.org/1999/02/22-rdf-syntax-ns#"
   xmlns:svg="http://www.w3.org/2000/svg"
   xmlns="http://www.w3.org/2000/svg"
   xmlns:sodipodi="http://sodipodi.sourceforge.net/DTD/sodipodi-0.dtd"
   xmlns:inkscape="http://www.inkscape.org/namespaces/inkscape"
   version="1.1"
   id="Elements"
   x="0px"
   y="0px"
   viewBox="0 0 443.44839 443.44841"
   xml:space="preserve"
   sodipodi:docname="Logo SimpleFi Token Mulberry.svg"
   inkscape:version="1.0.2 (e86c8708, 2021-01-15)"
   width="443.44839"
   height="443.44839"
   inkscape:export-filename="/Users/raph/Desktop/SimpleFi/Marketing/Logos-images-memes/Logos/Current logo/png/Token/Logo SimpleFi Token Mulberry White.png"
   inkscape:export-xdpi="301.79999"
   inkscape:export-ydpi="301.79999"><metadata
   id="metadata73"><rdf:RDF><cc:Work
       rdf:about=""><dc:format>image/svg+xml</dc:format><dc:type
         rdf:resource="http://purl.org/dc/dcmitype/StillImage" /><dc:title /></cc:Work></rdf:RDF></metadata><defs
   id="defs71"><clipPath
     clipPathUnits="userSpaceOnUse"
     id="clipPath899"><circle
       style="opacity:0.996;fill:#e6e6e6;fill-opacity:1;stroke-width:0.763441"
       id="circle901"
       cx="106.13253"
       cy="94.325249"
       r="51.026981" /></clipPath><clipPath
     clipPathUnits="userSpaceOnUse"
     id="clipPath929"><circle
       style="opacity:0.996;fill:#e6e6e6;fill-opacity:1;stroke:#000000;stroke-opacity:1"
       id="circle931"
       cx="109.15709"
       cy="91.325241"
       r="42.22303" /></clipPath></defs><sodipodi:namedview
   pagecolor="#ffffff"
   bordercolor="#666666"
   borderopacity="1"
   objecttolerance="10"
   gridtolerance="10"
   guidetolerance="10"
   inkscape:pageopacity="0"
   inkscape:pageshadow="2"
   inkscape:window-width="1440"
   inkscape:window-height="818"
   id="namedview69"
   showgrid="false"
   inkscape:zoom="0.98388308"
   inkscape:cx="186.22027"
   inkscape:cy="237.53674"
   inkscape:window-x="0"
   inkscape:window-y="25"
   inkscape:window-maximized="0"
   inkscape:current-layer="Elements"
   inkscape:document-rotation="0"
   fit-margin-left="50"
   fit-margin-top="50"
   fit-margin-right="50"
   fit-margin-bottom="50"
   inkscape:snap-others="true"
   inkscape:snap-object-midpoints="false"
   inkscape:snap-nodes="false" />
<style
   type="text/css"
   id="style10">
	.st0{fill:#D03C98;}
	.st1{fill:url(#SVGID_1_);}
	.st2{fill:url(#SVGID_2_);}
</style>


<rect
   style="opacity:0.996;fill:none;fill-opacity:1;stroke:none;stroke-width:3.38924;stroke-opacity:1"
   id="rect935"
   width="343.44839"
   height="343.44839"
   x="50"
   y="50"
   inkscape:export-filename="/Users/raph/Desktop/SimpleFi/Marketing/Logos-images-memes/Logos/Current logo/png/Token/Lisbeth circle RGB.png"
   inkscape:export-xdpi="301.79999"
   inkscape:export-ydpi="301.79999" /><circle
   style="opacity:0.996;fill:#d03c98;fill-opacity:1;stroke:none;stroke-width:3.64795;stroke-opacity:1"
   id="path903"
   cx="221.72417"
   cy="221.72418"
   inkscape:export-filename="/Users/raph/Desktop/SimpleFi/Marketing/Logos-images-memes/Logos/Current logo/png/Token/Lisbeth circle RGB.png"
   inkscape:export-xdpi="301.79999"
   inkscape:export-ydpi="301.79999"
   r="154.02742" /><g
   id="g66"
   transform="matrix(3.6479478,0,0,3.6479478,-176.47519,-111.42554)"
   inkscape:export-filename="/Users/raph/Desktop/SimpleFi/Marketing/Logos-images-memes/Logos/Current logo/png/Token/Lisbeth circle RGB.png"
   inkscape:export-xdpi="301.79999"
   inkscape:export-ydpi="301.79999"
   clip-path="url(#clipPath929)"
   style="opacity:1;fill:#ffffff">
	<g
   id="g47"
   style="fill:#ffffff">
		<linearGradient
   id="SVGID_1_"
   gradientUnits="userSpaceOnUse"
   x1="109.02"
   y1="125.2619"
   x2="128.27769"
   y2="125.2619">
			<stop
   offset="0"
   style="stop-color:#3A3394"
   id="stop34" />
			<stop
   offset="0.2563"
   style="stop-color:#433696"
   id="stop36" />
			<stop
   offset="0.3998"
   style="stop-color:#4B3997"
   id="stop38" />
			<stop
   offset="0.7721"
   style="stop-color:#5E3E9A"
   id="stop40" />
			<stop
   offset="1"
   style="stop-color:#673F9B"
   id="stop42" />
		</linearGradient>
		<path
   class="st1"
   d="m 125.1,115.19 c -0.42,-0.01 -0.56,-0.01 -0.94,0.11 -1.4,0.43 -2.16,1.46 -3.13,2.76 -0.43,0.57 -0.86,1.15 -1.34,1.69 -2.08,2.32 -4.97,3.29 -10.67,5.16 1.77,4.03 4.13,9.24 8.23,10.58 2.02,0.66 2.77,-2.98 3.72,-4.25 1.41,-1.88 2.83,-3.76 4.34,-5.56 1.91,-2.28 3.34,-5.26 2.87,-8.33 -0.12,-0.8 -0.28,-1.62 -0.5,-2.41 -0.14,0.03 -0.27,0.06 -0.42,0.08 -1.05,0.19 -1.69,0.18 -2.16,0.17 z"
   id="path45"
   style="fill:#ffffff" />
	</g>
	
		<linearGradient
   id="SVGID_2_"
   gradientUnits="userSpaceOnUse"
   x1="418.7168"
   y1="53.6549"
   x2="488.5318"
   y2="174.57809"
   gradientTransform="matrix(-1,0,0,1,539.9532,0)">
		<stop
   offset="4.500000e-07"
   style="stop-color:#1B298F"
   id="stop49" />
		<stop
   offset="0.0617"
   style="stop-color:#242C91"
   id="stop51" />
		<stop
   offset="0.1639"
   style="stop-color:#3E3495"
   id="stop53" />
		<stop
   offset="0.262"
   style="stop-color:#5C3E9A"
   id="stop55" />
		<stop
   offset="0.5114"
   style="stop-color:#96459F"
   id="stop57" />
		<stop
   offset="0.7672"
   style="stop-color:#C247A0"
   id="stop59" />
		<stop
   offset="1"
   style="stop-color:#EA3F9B"
   id="stop61" />
	</linearGradient>
	<path
   class="st2"
   d="m 129.91,106.91 c -1.03,0.25 -2.12,0.37 -3.24,0.37 -2.18,0 -4.47,-0.46 -6.69,-1.36 -2.43,-0.99 -4.42,-2.51 -5.75,-4.4 -0.53,-0.75 -0.36,-1.8 0.4,-2.33 0.75,-0.54 1.8,-0.36 2.33,0.4 0.97,1.37 2.45,2.49 4.29,3.24 2.72,1.11 5.52,1.41 7.89,0.84 1.99,-0.47 3.86,-1.36 5.85,-2.29 1.99,-0.94 4.33,-1.89 6.81,-1.89 0.01,0 0.02,0 0.04,0 0.64,0 1.28,0.09 1.92,0.23 0.16,-0.27 0.34,-0.51 0.5,-0.8 0.68,-1.33 1.52,-2.98 1.16,-4.76 -0.22,-1.1 -0.8,-1.77 -1.47,-2.55 -0.24,-0.28 -0.47,-0.55 -0.68,-0.82 -0.88,-1.16 -1.35,-2.37 -1.6,-3.6 -0.01,0.02 -0.05,0.05 -0.06,0.07 -0.56,0.74 -1.61,0.88 -2.34,0.33 -0.74,-0.56 -0.88,-1.61 -0.33,-2.34 0.31,-0.41 1.21,-1.44 2.64,-2.13 0.11,-0.98 0.29,-1.95 0.46,-2.88 0.35,-1.92 0.72,-3.9 0.52,-5.76 -0.87,-7.93 -11.82,-13.19 -15.95,-15.16 -2.5,-1.2 -8.44,-3.58 -16.28,-3.58 -1.79,0 -3.67,0.12 -5.64,0.41 -11.96,1.77 -19.85,8.76 -20.8,9.97 -0.6,0.76 -1.26,1.43 -2.01,2 -1.16,0.9 -2.49,1.57 -3.95,1.99 -2.4,0.7 -7.05,3.91 -11.15,6.75 -6.41,4.43 -10.64,7.36 -14.59,12.6 -3.41,4.53 -6.94,9.2 -7.29,15.64 -0.18,3.3 0.52,6.44 1.14,9.2 0.97,4.31 1.89,8.39 -0.95,11.66 -0.4,0.47 -1.02,0.97 -2.51,2.18 -2.83,2.31 -4.95,3.64 -6.5,4.61 -0.52,0.33 -0.97,0.61 -1.38,0.89 -3.02,2.05 -5.49,5.15 -7.34,9.22 -0.02,0.05 -2.36,5.34 -1.51,12.32 0.03,0.27 0.07,0.53 0.11,0.79 0.51,-0.57 1.16,-1.09 2.04,-1.38 1.58,-0.52 2.9,-0.27 3.69,-0.12 2.99,0.51 6.53,-1.83 8.04,-2.83 5.58,-3.7 8.01,-8.31 8.16,-9.22 l 0.03,-0.83 c 0.03,-1.04 0.88,-1.98 1.92,-1.99 0.01,0 0.01,0 0.02,0 1.03,0 1.89,0.89 1.94,1.93 0.06,1.31 0.26,2.69 0.57,3.9 0.58,2.25 2.98,3.61 4.74,4.61 l 0.36,0.2 c 2.59,1.48 4.94,1.91 6.07,2.11 1.37,0.25 2.11,0.24 2.91,0.24 1,0 2.03,-0.01 3.89,0.45 1.02,0.26 2.03,0.62 2.96,0.96 0.89,0.33 2.24,0.81 2.64,0.75 0.5,-0.18 0.58,-0.21 0.69,-1.07 0.01,-0.54 -1.12,-2.18 -1.79,-3.16 -0.43,-0.63 -0.88,-1.28 -1.28,-1.94 -1.16,-1.89 -1.51,-2.88 -1.81,-3.76 -0.25,-0.72 -0.46,-1.34 -1.21,-2.6 -0.93,-1.56 -2.86,-4.79 -6.39,-7.04 -1.19,-0.76 -2.15,-1.15 -2.93,-1.47 -1.1,-0.45 -2.62,-1.07 -2.64,-2.8 -0.02,-1.71 0.88,-3.7 11.95,-5.6 2.03,-0.35 5.24,-0.74 13.62,-1.03 3.64,-0.12 5.57,-0.14 6.92,-0.14 1.55,-0.01 2.26,-0.01 3.97,-0.18 4.45,-0.44 8.81,-1.34 12.61,-2.58 5.17,-1.7 7.77,-2.55 9.18,-4.13 0.41,-0.46 0.77,-0.94 1.13,-1.42 1.16,-1.56 2.48,-3.34 5.08,-4.14 0.97,-0.3 1.59,-0.3 2.13,-0.29 0.35,0 0.76,0.01 1.46,-0.11 1.6,-0.27 2.64,-0.8 6.03,-2.77 3.58,-2.08 5.95,-3.46 6.45,-3.85 0.66,-0.52 1.35,-1.09 2.03,-1.72 -1.6,0.16 -3.21,0.8 -4.48,1.4 -2.3,1.01 -4.42,2 -6.75,2.56 z m -34.88,-0.15 c -1.45,0.13 -2.09,1.16 -3.11,2.97 -0.29,0.51 -0.58,1.02 -0.9,1.51 -1.63,2.49 -4.4,5.88 -8.33,7.84 -2.05,1.02 -4.22,1.35 -6.4,1.35 -1.4,0 -2.8,-0.14 -4.17,-0.31 -3.36,-0.43 -6.35,-1.37 -8.88,-2.77 -2.25,-1.25 -4.43,-1.79 -6.89,-1.71 -1.97,0.08 -2.71,-1.13 -2.92,-1.64 -0.94,-2.25 1.42,-5.48 2.18,-6.19 3.24,-3.06 6.44,-5.96 10,-7.78 3.5,-1.79 7.21,-3.16 11.02,-4.1 2.78,-0.68 5.62,-0.6 8.37,-0.52 1.3,0.04 2.59,0.07 3.86,0.03 0.9,-0.05 1.7,0.68 1.73,1.61 0.04,0.92 -0.69,1.7 -1.61,1.73 -1.35,0.05 -2.71,0.01 -4.08,-0.03 -2.64,-0.08 -5.13,-0.15 -7.47,0.42 -3.56,0.87 -7.02,2.16 -10.3,3.83 -3.43,1.75 -6.78,4.92 -9.22,7.23 -0.39,0.37 -0.98,1.36 -1.23,2.05 0.01,0 0.01,0 0.02,0 2.95,0 5.59,0.7 8.18,2.14 2.16,1.2 4.74,2 7.68,2.38 3.44,0.44 6.23,0.49 8.65,-0.71 3.26,-1.62 5.62,-4.52 7.02,-6.67 0.28,-0.42 0.53,-0.87 0.78,-1.32 1.1,-1.95 2.46,-4.37 5.73,-4.66 0.92,-0.06 1.73,0.6 1.82,1.52 0.07,0.91 -0.61,1.72 -1.53,1.8 z m 17.3,-16.25 c -1.38,0.4 -2.03,1.66 -2.14,1.91 -0.29,0.61 -0.89,0.96 -1.52,0.96 -0.24,0 -0.48,-0.05 -0.71,-0.16 -0.84,-0.39 -1.2,-1.39 -0.8,-2.23 0.32,-0.67 1.55,-2.92 4.25,-3.7 2.55,-0.74 5.38,0.17 7.19,2.3 0.6,0.7 0.51,1.76 -0.19,2.36 -0.71,0.6 -1.76,0.51 -2.36,-0.19 -0.97,-1.13 -2.43,-1.63 -3.72,-1.25 z"
   id="path64"
   style="fill:#ffffff" />
</g>
</svg>
